{
  "accessors": [
    {
      "bufferView": 2,
      "componentType": 5126,
      "count": 3445,
      "max": [
        1.2573089599609375,
        0.4258340001106262,
        1.8734259605407715
      ],
      "min": [
        -1.2572410106658936,
        -0.3645560145378113,
        0.0003260000084992498
      ],
      "type": "VEC3"
    },
    {
      "bufferView": 2,
      "byteOffset": 41340,
      "componentType": 5126,
      "count": 3445,
      "max": [
        0.9999768733978271,
        0.9999991655349731,
        0.9999960660934448
      ],
      "min": [
        -0.9996244311332703,
        -0.9999898672103882,
        -1.0
      ],
      "type": "VEC3"
    },
    {
      "bufferView": 1,
      "componentType": 5126,
      "count": 3445,
      "max": [
        0.9996529817581177,
        -0.0023690001107752323
      ],
      "min": [
        0.0031799999997019768,
        -0.9957540035247803
      ],
      "type": "VEC2"
    },
    {
      "bufferView": 0,
      "componentType": 5125,
      "count": 15372,
      "type": "SCALAR"
    },
    {
      "bufferView": 2,
      "byteOffset": 82680,
      "componentType": 5126,
      "count": 1992,
      "max": [
        0.29685500264167786,
        0.18878699839115143,
        2.028820037841797
      ],
      "min": [
        -0.2968370020389557,
        -0.4246779978275299,
        1.4107639789581299
      ],
      "type": "VEC3"
    },
    {
      "bufferView": 2,
      "byteOffset": 106584,
      "componentType": 5126,
      "count": 1992,
      "max": [
        0.9999630451202393,
        0.9991291165351868,
        0.9994286298751831
      ],
      "min": [
        -0.9997621178627014,
        -0.999603807926178,
        -0.9999372959136963
      ],
      "type": "VEC3"
    },
    {
      "bufferView": 1,
      "byteOffset": 27560,
      "componentType": 5126,
      "count": 1992,
      "max": [
        0.9983670115470886,
        -0.0014400000218302011
      ],
      "min": [
        -0.0006810000049881637,
        -1.000825047492981
      ],
      "type": "VEC2"
    },
    {
      "bufferView": 0,
      "byteOffset": 61488,
      "componentType": 5125,
      "count": 10134,
      "type": "SCALAR"
    }
  ],
  "asset": {
    "extras": {
      "author": "gaddiellartey2010 (https://sketchfab.com/gaddiellartey2010)",
      "license": "CC-BY-4.0 (http://creativecommons.org/licenses/by/4.0/)",
      "source": "https://sketchfab.com/3d-models/shrek-ce450eac16ce4ed39039e5010780d1c9",
      "title": "Shrek"
    },
    "generator": "Sketchfab-15.25.0",
    "version": "2.0"
  },
  "bufferViews": [
    {
      "buffer": 0,
      "byteLength": 102024,
      "name": "floatBufferViews",
      "target": 34963
    },
    {
      "buffer": 0,
      "byteLength": 43496,
      "byteOffset": 102024,
      "byteStride": 8,
      "name": "floatBufferViews",
      "target": 34962
    },
    {
      "buffer": 0,
      "byteLength": 130488,
      "byteOffset": 145520,
      "byteStride": 12,
      "name": "floatBufferViews",
      "target": 34962
    }
  ],
  "buffers": [
    {
      "byteLength": 276008,
      "uri": "scene.bin"
    }
  ],
  "images": [
    {
      "uri": "textures/ShrekBody_Col_baseColor.png"
    },
    {
      "uri": "textures/ShrekHead_Col_baseColor.png"
    }
  ],
  "materials": [
    {
      "alphaMode": "BLEND",
      "doubleSided": true,
      "name": "ShrekBody_Col",
      "pbrMetallicRoughness": {
        "baseColorTexture": {
          "index": 0
        },
        "metallicFactor": 0.0
      }
    },
    {
      "doubleSided": true,
      "name": "ShrekHead_Col",
      "pbrMetallicRoughness": {
        "baseColorTexture": {
          "index": 1
        },
        "metallicFactor": 0.0
      }
    }
  ],
  "meshes": [
    {
      "name": "Object_0",
      "primitives": [
        {
          "attributes": {
            "NORMAL": 1,
            "POSITION": 0,
            "TEXCOORD_0": 2
          },
          "indices": 3,
          "material": 0,
          "mode": 4
        }
      ]
    },
    {
      "name": "Object_1",
      "primitives": [
        {
          "attributes": {
            "NORMAL": 5,
            "POSITION": 4,
            "TEXCOORD_0": 6
          },
          "indices": 7,
          "material": 1,
          "mode": 4
        }
      ]
    }
  ],
  "nodes": [
    {
      "children": [
        1
      ],
      "matrix": [
        1.0,
        0.0,
        0.0,
        0.0,
        0.0,
        2.220446049250313e-16,
        -1.0,
        0.0,
        0.0,
        1.0,
        2.220446049250313e-16,
        0.0,
        0.0,
        0.0,
        0.0,
        1.0
      ],
      "name": "Sketchfab_model"
    },
    {
      "children": [
        2,
        3
      ],
      "name": "shrek.obj.cleaner.materialmerger.gles"
    },
    {
      "mesh": 0,
      "name": "Object_2"
    },
    {
      "mesh": 1,
      "name": "Object_3"
    }
  ],
  "samplers": [
    {
      "magFilter": 9729,
      "minFilter": 9987,
      "wrapS": 10497,
      "wrapT": 10497
    }
  ],
  "scene": 0,
  "scenes": [
    {
      "name": "Sketchfab_Scene",
      "nodes": [
        0
      ]
    }
  ],
  "textures": [
    {
      "sampler": 0,
      "source": 0
    },
    {
      "sampler": 0,
      "source": 1
    }
  ]
}
